<svg width="38" height="30" viewBox="0 0 38 30" fill="none" xmlns="http://www.w3.org/2000/svg">
<path d="M6.38 29V3.4L9.18 6.2H0.78V0.999998H12.86V29H6.38ZM25.7241 29.48C23.4307 29.48 21.3774 28.92 19.5641 27.8C17.7507 26.6533 16.3241 25 15.2841 22.84C14.2441 20.68 13.7241 18.0667 13.7241 15C13.7241 11.9333 14.2441 9.32 15.2841 7.16C16.3241 5 17.7507 3.36 19.5641 2.24C21.3774 1.09333 23.4307 0.52 25.7241 0.52C28.0441 0.52 30.0974 1.09333 31.8841 2.24C33.6974 3.36 35.1241 5 36.1641 7.16C37.2041 9.32 37.7241 11.9333 37.7241 15C37.7241 18.0667 37.2041 20.68 36.1641 22.84C35.1241 25 33.6974 26.6533 31.8841 27.8C30.0974 28.92 28.0441 29.48 25.7241 29.48ZM25.7241 24C26.8174 24 27.7641 23.6933 28.5641 23.08C29.3907 22.4667 30.0307 21.4933 30.4841 20.16C30.9641 18.8267 31.2041 17.1067 31.2041 15C31.2041 12.8933 30.9641 11.1733 30.4841 9.84C30.0307 8.50667 29.3907 7.53333 28.5641 6.92C27.7641 6.30666 26.8174 6 25.7241 6C24.6574 6 23.7107 6.30666 22.8841 6.92C22.0841 7.53333 21.4441 8.50667 20.9641 9.84C20.5107 11.1733 20.2841 12.8933 20.2841 15C20.2841 17.1067 20.5107 18.8267 20.9641 20.16C21.4441 21.4933 22.0841 22.4667 22.8841 23.08C23.7107 23.6933 24.6574 24 25.7241 24Z" fill="#ED5B1C"/>
</svg>
