<svg width="36" height="42" viewBox="0 0 36 42" fill="none" xmlns="http://www.w3.org/2000/svg">
<path d="M35.75 26.1802V39.8989C35.75 40.8654 34.9665 41.6489 34 41.6489C33.0335 41.6489 32.25 40.8654 32.25 39.8989V38.4927C32.25 37.3881 31.3546 36.4927 30.25 36.4927H6.25C5.14543 36.4927 4.25 37.3881 4.25 38.4927V39.8989C4.25 40.8654 3.4665 41.6489 2.5 41.6489C1.5335 41.6489 0.75 40.8654 0.75 39.8989V15.8989C0.75 14.9324 1.5335 14.1489 2.5 14.1489C3.4665 14.1489 4.25 14.9324 4.25 15.8989V29.3364C4.25 30.441 5.14543 31.3364 6.25 31.3364H16.25C17.3546 31.3364 18.25 30.441 18.25 29.3364V21.3052C18.25 20.2006 19.1454 19.3052 20.25 19.3052H28.75C30.6065 19.3052 32.387 20.0295 33.6997 21.3188C35.0125 22.6081 35.75 24.3568 35.75 26.1802ZM11.25 29.6177C9.85761 29.6177 8.52226 29.0744 7.53769 28.1074C6.55312 27.1405 6 25.8289 6 24.4614C6 23.0939 6.55312 21.7824 7.53769 20.8154C8.52226 19.8484 9.85761 19.3052 11.25 19.3052C12.6424 19.3052 13.9777 19.8484 14.9623 20.8154C15.9469 21.7824 16.5 23.0939 16.5 24.4614C16.5 25.8289 15.9469 27.1405 14.9623 28.1074C13.9777 29.0744 12.6424 29.6177 11.25 29.6177Z" fill="#184A7B"/>
<path d="M22.9102 0H14.3344C13.4435 0 12.9973 1.07714 13.6273 1.70711L17.9152 5.99502C18.3057 6.38554 18.9389 6.38555 19.3294 5.99502L23.6173 1.70711C24.2473 1.07714 23.8011 0 22.9102 0Z" fill="#184A7B"/>
</svg>
