<svg width="36" height="45" viewBox="0 0 36 45" fill="none" xmlns="http://www.w3.org/2000/svg">
<path d="M13.9621 2.0937V11.6716C13.9621 12.2854 13.4661 12.7801 12.8549 12.7801H12.559C11.9478 12.7801 11.4504 12.2854 11.4504 11.6716V2.04986C11.4504 0.471357 10.3885 0 9.3704 0C8.35227 0 7.29038 0.471357 7.29038 2.04986V11.6716C7.29038 12.2854 6.79298 12.7801 6.18184 12.7801H5.88587C5.27473 12.7801 4.77873 12.2854 4.77873 11.6716V2.0937C4.77873 -0.731722 0.750225 -0.635784 0.750225 2.12518C0.750225 5.43152 0.750225 11.2714 0.750225 11.2714C0.731019 16.3495 1.94506 17.669 3.94835 19.2516C5.56385 20.5259 6.94364 21.2562 6.94364 24.4215V44.783H11.797V24.4215C11.797 21.2562 13.1768 20.5259 14.7923 19.2516C16.7969 17.669 18.0096 16.3495 17.9904 11.2714C17.9904 11.2714 17.9904 5.43152 17.9904 2.12518C17.9905 -0.635784 13.9621 -0.731722 13.9621 2.0937Z" fill="#184A7B"/>
<path d="M29.5827 3.04741C28.5522 5.9372 25.5857 12.7075 25.398 18.6872C25.1074 27.9691 30.7953 26.5961 30.8967 32.6771V44.8393H35.7267L35.75 44.8996C35.75 44.8996 35.75 44.875 35.75 44.8393C35.75 44.0267 35.75 34.3489 35.75 24.4764C35.75 14.7108 35.75 4.76297 35.75 3.04749C35.75 -0.476854 31.1871 -1.44965 29.5827 3.04741Z" fill="#184A7B"/>
</svg>
