<svg width="23" height="18" viewBox="0 0 23 18" fill="none" xmlns="http://www.w3.org/2000/svg">
<path fill-rule="evenodd" clip-rule="evenodd" d="M1.77795 1.39087C1.22567 1.39087 0.777954 1.83858 0.777954 2.39087V4.39087C0.777954 4.94315 1.22567 5.39087 1.77795 5.39087L21.778 5.39087C22.3302 5.39087 22.778 4.94315 22.778 4.39087V2.39087C22.778 1.83858 22.3302 1.39087 21.778 1.39087H1.77795ZM1.77795 11.3909C1.22567 11.3909 0.777954 10.9431 0.777954 10.3909V8.39086C0.777954 7.83858 1.22567 7.39086 1.77795 7.39086L21.778 7.39086C22.3302 7.39086 22.778 7.83858 22.778 8.39086V10.3909C22.778 10.9431 22.3302 11.3909 21.778 11.3909L1.77795 11.3909ZM21.7782 13.3908C22.3305 13.3908 22.7782 13.8386 22.7782 14.3908V16.3908C22.7782 16.9431 22.3305 17.3908 21.7782 17.3908L1.7782 17.3908C1.22591 17.3908 0.778198 16.9431 0.778198 16.3908L0.778198 14.3908C0.778198 13.8386 1.22591 13.3908 1.7782 13.3908L21.7782 13.3908Z" fill="#184A7B"/>
</svg>
