<svg width="28" height="28" viewBox="0 0 28 28" fill="none" xmlns="http://www.w3.org/2000/svg">
<path fill-rule="evenodd" clip-rule="evenodd" d="M13.9024 7.69995C14.6756 7.69995 15.3024 8.32675 15.3024 9.09996V14.1201L19.0923 17.91C19.6391 18.4568 19.6391 19.3432 19.0923 19.8899C18.5456 20.4367 17.6592 20.4367 17.1124 19.8899L12.5023 15.2799V9.09996C12.5023 8.32675 13.1292 7.69995 13.9024 7.69995Z" fill="#ED5B1C"/>
<path fill-rule="evenodd" clip-rule="evenodd" d="M14 2.80001C7.81444 2.80001 2.80001 7.81444 2.80001 14C2.80001 20.1857 7.81444 25.2001 14 25.2001C20.1857 25.2001 25.2001 20.1857 25.2001 14C25.2001 7.81444 20.1857 2.80001 14 2.80001ZM0 14C0 6.26803 6.26803 0 14 0C21.7321 0 28.0001 6.26803 28.0001 14C28.0001 21.7321 21.7321 28.0001 14 28.0001C6.26803 28.0001 0 21.7321 0 14Z" fill="#ED5B1C"/>
</svg>
