<svg width="366" height="25" viewBox="0 0 366 25" fill="none" xmlns="http://www.w3.org/2000/svg">
<path fill-rule="evenodd" clip-rule="evenodd" d="M397.75 5.28503C398.477 4.5967 398.759 3.9783 398.759 3.44581C398.759 2.91333 398.477 2.29493 397.75 1.6066C397.035 0.92844 395.953 0.244671 394.505 -0.436237C391.614 -1.79633 387.336 -3.11441 381.806 -4.373C370.752 -6.88922 354.746 -9.15693 334.959 -11.0619C295.386 -14.8717 240.712 -17.2285 180.317 -17.2285C119.922 -17.2285 65.2482 -14.8717 25.6754 -11.0619C5.88771 -9.15693 -10.1175 -6.88922 -21.1723 -4.373C-26.7018 -3.11441 -30.9803 -1.79633 -33.8712 -0.436237C-35.3185 0.244671 -36.4011 0.92844 -37.1164 1.6066C-37.8425 2.29493 -38.1251 2.91333 -38.1251 3.44581C-38.1251 3.9783 -37.8425 4.5967 -37.1164 5.28503C-36.4011 5.96319 -35.3185 6.64696 -33.8712 7.32787C-30.9803 8.68796 -26.7018 10.006 -21.1723 11.2646C-10.1175 13.7809 5.88771 16.0486 25.6754 17.9536C65.2482 21.7633 119.922 24.1201 180.317 24.1201C240.712 24.1201 295.386 21.7633 334.959 17.9536C354.746 16.0486 370.752 13.7809 381.806 11.2646C387.336 10.006 391.614 8.68796 394.505 7.32787C395.953 6.64696 397.035 5.96319 397.75 5.28503ZM180.317 24.503C301.115 24.503 399.042 15.0754 399.042 3.44581C399.042 -8.18372 301.115 -17.6113 180.317 -17.6113C59.5188 -17.6113 -38.4075 -8.18372 -38.4075 3.44581C-38.4075 15.0754 59.5188 24.503 180.317 24.503Z" fill="#184A7B"/>
</svg>
