<svg width="32" height="32" viewBox="0 0 32 32" fill="none" xmlns="http://www.w3.org/2000/svg">
<path d="M20.3472 21.5932L19.6091 22.3666C19.6091 22.3666 17.8547 24.205 13.0662 19.187C8.27766 14.1692 10.032 12.3308 10.032 12.3308L10.4968 11.8438C11.6418 10.644 11.7497 8.71775 10.7507 7.31151L8.70732 4.43489C7.47092 2.69439 5.08179 2.46446 3.66466 3.94946L1.12113 6.61479C0.418456 7.35112 -0.0524258 8.30562 0.0046803 9.36448C0.150768 12.0734 1.31375 17.9017 7.80325 24.7021C14.6851 31.9134 21.1422 32.2 23.7828 31.9407C24.618 31.8586 25.3443 31.4103 25.9296 30.7969L28.2317 28.3847C29.7856 26.7564 29.3474 23.965 27.3592 22.8259L24.2633 21.0522C22.9578 20.3043 21.3675 20.524 20.3472 21.5932Z" fill="#ED5B1C"/>
<path d="M16.6252 1.16088C16.7325 0.50138 17.3588 0.0540072 18.0215 0.160766C18.0625 0.168588 18.1945 0.193137 18.2636 0.20846C18.4019 0.239121 18.5948 0.286299 18.8353 0.356025C19.3162 0.495445 19.9881 0.72514 20.7944 1.09309C22.4089 1.82981 24.5574 3.11852 26.7869 5.33757C29.0163 7.55661 30.3111 9.69502 31.0512 11.3019C31.421 12.1046 31.6517 12.7733 31.7917 13.2519C31.8617 13.4913 31.9092 13.6833 31.94 13.8209C31.9554 13.8897 31.9668 13.945 31.9745 13.9858L31.9839 14.0361C32.091 14.6956 31.6457 15.3449 30.9831 15.4517C30.3224 15.5582 29.7 15.1128 29.5901 14.4565C29.5867 14.4388 29.5773 14.3915 29.5675 14.3469C29.5474 14.2575 29.5128 14.1159 29.4581 13.9285C29.3484 13.5538 29.158 12.9968 28.8416 12.3102C28.21 10.9387 27.074 9.04489 25.068 7.04832C23.0622 5.05176 21.1594 3.92112 19.7815 3.29236C19.0916 2.97759 18.5321 2.78802 18.1555 2.67886C17.9673 2.62429 17.7307 2.57025 17.641 2.55036C16.9814 2.44095 16.5183 1.8185 16.6252 1.16088Z" fill="#ED5B1C"/>
<path fill-rule="evenodd" clip-rule="evenodd" d="M16.9919 6.72485C17.1763 6.08246 17.849 5.71049 18.4944 5.89402L18.1606 7.05717C18.4944 5.89402 18.4944 5.89402 18.4944 5.89402L18.4968 5.8947L18.4993 5.89541L18.5046 5.89697L18.5172 5.90071L18.5493 5.91065C18.5736 5.91842 18.6043 5.92855 18.6406 5.94141C18.7133 5.96712 18.8096 6.00367 18.9276 6.05399C19.1637 6.1547 19.4861 6.31022 19.8825 6.54362C20.6756 7.01085 21.7584 7.78695 23.0305 9.05304C24.3026 10.3191 25.0822 11.3969 25.5516 12.1863C25.7861 12.5807 25.9423 12.9018 26.0436 13.1368C26.0942 13.2542 26.131 13.3499 26.1567 13.4224C26.1697 13.4586 26.1797 13.4889 26.1877 13.5133L26.1976 13.5452L26.2013 13.5577L26.2029 13.563L26.2036 13.5655C26.2036 13.5655 26.2044 13.5679 25.0357 13.9002L26.2044 13.5679C26.3888 14.2102 26.0149 14.8797 25.3697 15.0633C24.7297 15.2452 24.0629 14.8812 23.8718 14.2488L23.8658 14.2314C23.8573 14.2072 23.8394 14.1595 23.8094 14.0898C23.7495 13.9505 23.6408 13.7227 23.4599 13.4186C23.0985 12.8109 22.446 11.8928 21.3116 10.7638C20.1774 9.63483 19.2549 8.98531 18.6445 8.62568C18.3388 8.44565 18.11 8.33742 17.97 8.27774C17.9 8.24789 17.852 8.23008 17.8277 8.22148L17.8102 8.21553C17.175 8.0254 16.8091 7.36177 16.9919 6.72485Z" fill="#ED5B1C"/>
<path d="M20.3472 21.4482L19.6091 22.2216C19.6091 22.2216 17.8547 24.06 13.0662 19.042C8.27766 14.0242 10.032 12.1858 10.032 12.1858L10.4968 11.6988C11.6418 10.499 11.7497 8.57273 10.7507 7.16649L8.70732 4.28987C7.47092 2.54937 5.08179 2.31945 3.66466 3.80444L1.12113 6.46977C0.418456 7.2061 -0.0524258 8.1606 0.0046803 9.21946C0.150768 11.9284 1.31375 17.7567 7.80325 24.5571C14.6851 31.7684 21.1422 32.055 23.7828 31.7956C24.618 31.7135 25.3443 31.2653 25.9296 30.6519L28.2317 28.2397C29.7856 26.6114 29.3474 23.82 27.3592 22.6809L24.2633 20.9072C22.9578 20.1593 21.3675 20.379 20.3472 21.4482Z" fill="#ED5B1C"/>
<path d="M16.6252 1.01586C16.7325 0.356361 17.3588 -0.0910124 18.0215 0.0157462C18.0625 0.0235689 18.1945 0.0481173 18.2636 0.06344C18.4019 0.0941014 18.5948 0.141279 18.8353 0.211005C19.3162 0.350425 19.9881 0.58012 20.7944 0.948074C22.4089 1.68479 24.5574 2.9735 26.7869 5.19255C29.0163 7.41159 30.3111 9.55 31.0512 11.1569C31.421 11.9595 31.6517 12.6282 31.7917 13.1069C31.8617 13.3463 31.9092 13.5383 31.94 13.6759C31.9554 13.7447 31.9668 13.8 31.9745 13.8408L31.9839 13.8911C32.091 14.5506 31.6457 15.1999 30.9831 15.3067C30.3224 15.4131 29.7 14.9678 29.5901 14.3115C29.5867 14.2938 29.5773 14.2465 29.5675 14.2019C29.5474 14.1125 29.5128 13.9708 29.4581 13.7835C29.3484 13.4088 29.158 12.8518 28.8416 12.1652C28.21 10.7937 27.074 8.89987 25.068 6.9033C23.0622 4.90674 21.1594 3.7761 19.7815 3.14734C19.0916 2.83257 18.5321 2.643 18.1555 2.53384C17.9673 2.47927 17.7307 2.42523 17.641 2.40534C16.9814 2.29594 16.5183 1.67348 16.6252 1.01586Z" fill="#ED5B1C"/>
<path fill-rule="evenodd" clip-rule="evenodd" d="M16.9919 6.57958C17.1763 5.93719 17.849 5.56522 18.4944 5.74876L18.1606 6.91191C18.4944 5.74876 18.4944 5.74876 18.4944 5.74876L18.4968 5.74943L18.4993 5.75014L18.5046 5.75171L18.5172 5.75545L18.5493 5.76539C18.5736 5.77316 18.6043 5.78329 18.6406 5.79615C18.7133 5.82185 18.8096 5.8584 18.9276 5.90873C19.1637 6.00944 19.4861 6.16495 19.8825 6.39836C20.6756 6.86559 21.7584 7.64169 23.0305 8.90777C24.3026 10.1739 25.0822 11.2516 25.5516 12.0411C25.7861 12.4354 25.9423 12.7565 26.0436 12.9915C26.0942 13.1089 26.131 13.2047 26.1567 13.2771C26.1697 13.3133 26.1797 13.3437 26.1877 13.368L26.1976 13.3999L26.2013 13.4124L26.2029 13.4178L26.2036 13.4203C26.2036 13.4203 26.2044 13.4226 25.0357 13.7549L26.2044 13.4226C26.3888 14.065 26.0149 14.7345 25.3697 14.918C24.7297 15.1 24.0629 14.7359 23.8718 14.1035L23.8658 14.0862C23.8573 14.0619 23.8394 14.0142 23.8094 13.9445C23.7495 13.8053 23.6408 13.5775 23.4599 13.2733C23.0985 12.6656 22.446 11.7475 21.3116 10.6185C20.1774 9.48957 19.2549 8.84005 18.6445 8.48042C18.3388 8.30038 18.11 8.19216 17.97 8.13248C17.9 8.10262 17.852 8.08482 17.8277 8.07622L17.8102 8.07027C17.175 7.88014 16.8091 7.21651 16.9919 6.57958Z" fill="#ED5B1C"/>
</svg>
