<svg width="34" height="33" viewBox="0 0 34 33" fill="none" xmlns="http://www.w3.org/2000/svg">
<rect x="0.499969" width="33.0001" height="33.0001" rx="16.5" fill="white"/>
<path d="M19.8528 20.1704L19.3684 20.678C19.3684 20.678 18.2171 21.8844 15.0747 18.5914C11.9322 15.2984 13.0835 14.092 13.0835 14.092L13.3885 13.7724C14.1399 12.985 14.2107 11.7209 13.5551 10.7981L12.2141 8.91031C11.4028 7.7681 9.8349 7.61721 8.9049 8.59174L7.23571 10.3409C6.77458 10.8241 6.46557 11.4505 6.50304 12.1454C6.59891 13.9231 7.36212 17.7479 11.6209 22.2106C16.137 26.9431 20.3746 27.1312 22.1074 26.961C22.6555 26.9071 23.1322 26.6129 23.5163 26.2104L25.027 24.6274C26.0468 23.5588 25.7592 21.7269 24.4545 20.9794L22.4228 19.8154C21.566 19.3246 20.5224 19.4688 19.8528 20.1704Z" fill="#ED5B1C"/>
<path d="M17.4104 6.76188C17.4808 6.32908 17.8919 6.03549 18.3267 6.10555C18.3536 6.11068 18.4403 6.12679 18.4856 6.13685C18.5764 6.15697 18.703 6.18793 18.8608 6.23369C19.1764 6.32518 19.6173 6.47592 20.1465 6.71739C21.206 7.20086 22.6159 8.04658 24.079 9.50282C25.5421 10.9591 26.3918 12.3624 26.8775 13.4169C27.1201 13.9437 27.2716 14.3825 27.3635 14.6966C27.4094 14.8537 27.4406 14.9797 27.4608 15.07C27.4709 15.1152 27.4783 15.1515 27.4834 15.1782L27.4896 15.2113C27.5599 15.644 27.2677 16.0702 26.8328 16.1402C26.3992 16.2101 25.9908 15.9178 25.9187 15.4872C25.9164 15.4755 25.9103 15.4445 25.9038 15.4152C25.8906 15.3565 25.8679 15.2636 25.832 15.1406C25.76 14.8947 25.635 14.5292 25.4275 14.0786C25.0129 13.1786 24.2675 11.9358 22.951 10.6255C21.6347 9.31526 20.386 8.57328 19.4817 8.16066C19.029 7.95409 18.6618 7.82968 18.4147 7.75805C18.2912 7.72224 18.1359 7.68677 18.077 7.67372C17.6442 7.60192 17.3403 7.19344 17.4104 6.76188Z" fill="#ED5B1C"/>
<path fill-rule="evenodd" clip-rule="evenodd" d="M17.651 10.4131C17.772 9.99157 18.2134 9.74746 18.637 9.86791L18.4179 10.6312C18.637 9.86791 18.637 9.86791 18.637 9.86791L18.6386 9.86835L18.6402 9.86882L18.6437 9.86984L18.652 9.8723L18.673 9.87882C18.689 9.88392 18.7091 9.89057 18.7329 9.899C18.7807 9.91588 18.8438 9.93986 18.9213 9.97289C19.0762 10.039 19.2878 10.141 19.5479 10.2942C20.0684 10.6008 20.779 11.1101 21.6138 11.941C22.4486 12.7719 22.9602 13.4791 23.2683 13.9972C23.4222 14.256 23.5247 14.4667 23.5912 14.6209C23.6244 14.698 23.6485 14.7608 23.6654 14.8084C23.6739 14.8321 23.6805 14.8521 23.6857 14.868L23.6922 14.889L23.6946 14.8972L23.6957 14.9007L23.6961 14.9023C23.6961 14.9023 23.6967 14.9039 22.9297 15.1219L23.6967 14.9039C23.8177 15.3254 23.5723 15.7648 23.1489 15.8852C22.7289 16.0046 22.2913 15.7657 22.1659 15.3507L22.162 15.3393C22.1564 15.3234 22.1447 15.2921 22.125 15.2464C22.0856 15.155 22.0143 15.0055 21.8956 14.8059C21.6585 14.4071 21.2302 13.8046 20.4858 13.0637C19.7415 12.3228 19.1361 11.8966 18.7355 11.6606C18.5349 11.5424 18.3847 11.4714 18.2929 11.4322C18.2469 11.4126 18.2154 11.4009 18.1995 11.3953L18.188 11.3914C17.7711 11.2666 17.531 10.8311 17.651 10.4131Z" fill="#ED5B1C"/>
<path d="M19.8528 20.0752L19.3684 20.5828C19.3684 20.5828 18.2171 21.7892 15.0747 18.4962C11.9322 15.2032 13.0835 13.9968 13.0835 13.9968L13.3885 13.6772C14.1399 12.8898 14.2107 11.6257 13.5551 10.7029L12.2141 8.81509C11.4028 7.67288 9.8349 7.522 8.9049 8.49652L7.23571 10.2457C6.77458 10.7289 6.46557 11.3553 6.50304 12.0501C6.59891 13.8279 7.36212 17.6527 11.6209 22.1154C16.137 26.8479 20.3746 27.036 22.1074 26.8658C22.6555 26.8119 23.1322 26.5177 23.5163 26.1152L25.027 24.5321C26.0468 23.4636 25.7592 21.6317 24.4545 20.8842L22.4228 19.7202C21.566 19.2294 20.5224 19.3736 19.8528 20.0752Z" fill="#ED5B1C"/>
<path d="M17.4104 6.66666C17.4808 6.23386 17.8919 5.94027 18.3267 6.01033C18.3536 6.01547 18.4403 6.03158 18.4856 6.04163C18.5764 6.06175 18.703 6.09271 18.8608 6.13847C19.1764 6.22997 19.6173 6.3807 20.1465 6.62217C21.206 7.10564 22.6159 7.95136 24.079 9.40761C25.5421 10.8639 26.3918 12.2672 26.8775 13.3217C27.1201 13.8484 27.2716 14.2873 27.3635 14.6014C27.4094 14.7585 27.4406 14.8845 27.4608 14.9748C27.4709 15.02 27.4783 15.0562 27.4834 15.083L27.4896 15.116C27.5599 15.5488 27.2677 15.9749 26.8328 16.045C26.3992 16.1149 25.9908 15.8226 25.9187 15.3919C25.9164 15.3803 25.9103 15.3493 25.9038 15.32C25.8906 15.2613 25.8679 15.1684 25.832 15.0454C25.76 14.7995 25.635 14.434 25.4275 13.9834C25.0129 13.0834 24.2675 11.8405 22.951 10.5303C21.6347 9.22005 20.386 8.47807 19.4817 8.06544C19.029 7.85887 18.6618 7.73447 18.4147 7.66283C18.2912 7.62702 18.1359 7.59155 18.077 7.5785C17.6442 7.50671 17.3403 7.09822 17.4104 6.66666Z" fill="#ED5B1C"/>
<path fill-rule="evenodd" clip-rule="evenodd" d="M17.651 10.3178C17.772 9.89623 18.2134 9.65212 18.637 9.77257L18.4179 10.5359C18.637 9.77257 18.637 9.77257 18.637 9.77257L18.6386 9.77301L18.6402 9.77348L18.6437 9.77451L18.652 9.77696L18.673 9.78348C18.689 9.78858 18.7091 9.79523 18.7329 9.80367C18.7807 9.82054 18.8438 9.84452 18.9213 9.87755C19.0762 9.94364 19.2878 10.0457 19.5479 10.1989C20.0684 10.5055 20.779 11.0148 21.6138 11.8457C22.4486 12.6766 22.9602 13.3838 23.2683 13.9019C23.4222 14.1607 23.5247 14.3714 23.5912 14.5256C23.6244 14.6027 23.6485 14.6655 23.6654 14.713C23.6739 14.7368 23.6805 14.7567 23.6857 14.7727L23.6922 14.7936L23.6946 14.8018L23.6957 14.8054L23.6961 14.807C23.6961 14.807 23.6967 14.8085 22.9297 15.0266L23.6967 14.8085C23.8177 15.2301 23.5723 15.6694 23.1489 15.7899C22.7289 15.9093 22.2913 15.6704 22.1659 15.2554L22.162 15.244C22.1564 15.2281 22.1447 15.1968 22.125 15.151C22.0856 15.0597 22.0143 14.9102 21.8956 14.7105C21.6585 14.3118 21.2302 13.7092 20.4858 12.9684C19.7415 12.2275 19.1361 11.8012 18.7355 11.5652C18.5349 11.4471 18.3847 11.376 18.2929 11.3369C18.2469 11.3173 18.2154 11.3056 18.1995 11.3L18.188 11.2961C17.7711 11.1713 17.531 10.7358 17.651 10.3178Z" fill="#ED5B1C"/>
</svg>
