<svg width="61" height="60" viewBox="0 0 61 60" fill="none" xmlns="http://www.w3.org/2000/svg">
<path d="M41.75 15C46.5342 15 50.4215 18.8395 50.4987 23.6052C50.7243 25.7677 50.6915 28.9578 49.23 32.6408C47.7363 36.4045 44.819 40.5105 39.5 44.4998C38.3955 45.3283 36.8285 45.1045 36 43.9997C35.1715 42.8952 35.3955 41.3282 36.5 40.4997C40.41 37.5675 42.6522 34.7162 43.9323 32.2257C43.2345 32.4047 42.5035 32.5 41.75 32.5C36.9175 32.5 33 28.5825 33 23.75C33 18.9175 36.9175 15 41.75 15ZM19.25 15C24.0342 15 27.9215 18.8395 27.9988 23.6052C28.2243 25.7677 28.1915 28.9578 26.73 32.6408C25.2363 36.4045 22.3189 40.5105 17 44.4998C15.8954 45.3283 14.3284 45.1045 13.5 43.9997C12.6715 42.8952 12.8954 41.3282 14 40.4997C17.9099 37.5675 20.1523 34.7162 21.4322 32.2257C20.7346 32.4047 20.0034 32.5 19.25 32.5C14.4175 32.5 10.5 28.5825 10.5 23.75C10.5 18.9175 14.4175 15 19.25 15Z" fill="#ED5B1C"/>
</svg>
