<svg width="18" height="18" viewBox="0 0 18 18" fill="none" xmlns="http://www.w3.org/2000/svg">
<path fill-rule="evenodd" clip-rule="evenodd" d="M17.2635 3.12132C17.654 2.7308 17.654 2.09763 17.2635 1.70711L15.8493 0.292893C15.4588 -0.0976311 14.8256 -0.0976311 14.4351 0.292893L9.4853 5.24267C9.09478 5.63319 8.46161 5.63319 8.07109 5.24267L3.12132 0.292896C2.7308 -0.0976281 2.09763 -0.0976282 1.70711 0.292896L0.292893 1.70711C-0.0976311 2.09763 -0.097631 2.7308 0.292893 3.12132L5.24266 8.07109C5.63319 8.46162 5.63319 9.09478 5.24266 9.48531L0.292941 14.435C-0.0975834 14.8256 -0.0975833 15.4587 0.292941 15.8492L1.70715 17.2635C2.09768 17.654 2.73084 17.654 3.12137 17.2635L8.07109 12.3137C8.46161 11.9232 9.09478 11.9232 9.4853 12.3137L14.435 17.2635C14.8256 17.654 15.4587 17.654 15.8492 17.2635L17.2635 15.8492C17.654 15.4587 17.654 14.8256 17.2635 14.435L12.3137 9.48531C11.9232 9.09478 11.9232 8.46162 12.3137 8.07109L17.2635 3.12132Z" fill="#184A7B"/>
</svg>
